<svg version="1" xmlns="http://www.w3.org/2000/svg" width="846.667" height="846.667" viewBox="0 0 635.000000 635.000000"><path d="M277.3 9.7c-19.6 10-41.3 39.3-67.7 91.8-8.2 16.2-22.4 46.7-23.1 49.5-.1.3-.9 2.3-1.9 4.5-4.3 9.6-15.9 38.2-20.9 51.5-12.5 32.8-13.4 35.5-12.3 36.2.6.3 3.8 1.1 7.1 1.7 6.8 1.3 5.8 1.1 22.5 4.5 6.9 1.4 13.8 2.8 15.4 3 1.6.3 5.2 1 8 1.5 2.8.6 6.2 1.3 7.6 1.5 1.4.3 3.6.7 5 1.1 1.4.3 6.3 1.2 11 2.1 4.7.9 9.4 1.8 10.5 2 1.1.2 4.3.8 7 1.4 7.1 1.5 9.6 2 13 2.5 1.7.3 9.5 1.9 17.5 3.5s15.6 3.1 17 3.4c1.4.2 10.6 2 20.5 4 9.9 1.9 19.4 3.8 21 4.1 3.9.6 3.6.6 33 6.4 13.8 2.8 26.6 5.3 28.5 5.6 1.9.3 4.2.8 5 1 .8.2 2.9.7 4.5.9 1.7.3 4.1.8 5.5 1.1 1.4.2 3.6.7 5 .9 1.4.3 3.4.7 4.5.9 3.5.8 19.9 3.9 22 4.2 1.1.2 3.8.7 6 1.3 2.2.6 5.6 1.3 7.5 1.6 1.9.3 11.6 2.1 21.5 4.1 24.3 4.8 24.5 4.9 24.6 3.3.1-.7.3-3.3.4-5.8.1-2.5.5-7.9.9-12 .3-4.1.9-12.5 1.2-18.5.3-6.1.7-14.6.9-19 3.5-72 2.1-140-3.5-171-.5-2.8-1.2-6.1-1.4-7.5-3.2-18.5-9.8-30.6-17.9-32.7-5.6-1.5-30.8-.6-33.8 1.2-.3.2-1.9.7-3.6.9-6.1 1.1-17.3 5-39.3 13.8-23.7 9.4-31.2 11.8-37 11.8-7.4 0-16.4-7.3-37.5-30.5-14.6-16-25.1-26.1-31.9-30.6-5.5-3.6-6.7-3.9-11.8-3.8-3.7.2-7.4 1.1-10.5 2.6zM55 239.3c0 .2-1.6 8.2-3.5 17.8-2 9.6-3.7 18.3-3.9 19.4-.2 1.1-1.6 8.2-3.1 15.8-1.6 7.5-2.6 13.9-2.4 14.1.2.2 6 1.6 12.9 3.1 23.5 5.1 44.5 9.6 46 10 2.7.7 32.7 6.8 39 8 1.4.3 7 1.4 12.5 2.5l20 4c5.5 1 17 3.3 25.5 5 8.5 1.7 16.6 3.4 18 3.6 1.4.3 30.4 6.1 64.5 12.9 34.1 6.8 63.1 12.6 64.5 12.8 1.4.3 7.2 1.5 13 2.7 5.8 1.2 11.6 2.4 13 2.6 4.1.8 32.3 6.4 34.8 6.9 4.1.9 6.7 1.4 18.4 3.7 8.4 1.5 11.9 2.6 12.3 3.7 1.4 4.6 4.7 22.6 5.3 29.1 1.6 17.4.4 38.6-3.3 58.1-1 5.5-5.7 20.4-9.1 29.3-3.3 8.6-13.8 29.5-15.4 30.6-.4.3-1.3 1.6-2 3-3.1 5.9-16.3 22.3-25.5 31.6-16.1 16.3-31.8 27.6-52.1 37.8-10 5-31 13-37.1 14.1-4.5.8-3.7 1.5 1.8 1.6 34.4.9 48.7 0 68.9-4.3 56.8-12.1 100.9-47.8 124.3-100.5 2.6-5.9 7.3-18 8.2-21.3 1.7-6 5.5-20.9 5.9-23 .2-1.4.7-3.6 1-5 .7-2.7 1.1-5.6 2.3-17 .9-8.6 1.1-36.7.2-45.3-.3-3.1-.5-5.7-.4-5.7 0 0 6.6 1.3 14.6 2.9 8 1.7 15.8 3.2 17.4 3.5 1.7.3 12.2 2.4 23.4 4.6 11.3 2.2 20.8 3.7 21.2 3.3.6-.7 12.5-58.6 13.1-64.3.3-2.4 0-2.6-9.3-4.4-1.3-.2-14.1-2.8-28.4-5.6-14.3-2.9-26.9-5.4-28-5.6-1.1-.2-12.3-2.5-25-5-12.6-2.5-24.3-4.8-26-5-1.6-.3-4.8-.9-7-1.4-3.5-.8-32.1-6.5-45.5-9.1-6.6-1.2-8.7-1.6-28-5.5-9.6-2-18.6-3.8-20-4-1.4-.2-3.6-.7-5-1-1.4-.3-3.6-.8-5-1-1.4-.3-11.5-2.3-22.5-4.5-11-2.3-21.1-4.3-22.5-4.5-1.4-.3-12.4-2.5-24.5-4.9-12.1-2.4-23.3-4.6-25-4.9-1.6-.3-3.9-.8-5-1-3.2-.7-22.7-4.7-25.5-5.2-1.4-.2-3.6-.7-5-1-1.4-.3-3.6-.8-5-1-1.4-.3-7-1.3-12.5-2.4-5.5-1.1-11.1-2.2-12.5-2.5-1.4-.3-5.9-1.2-10-2s-8.6-1.7-10-2c-1.4-.3-17.8-3.7-36.5-7.6-18.7-3.9-35.1-7.3-36.5-7.5-1.4-.3-4.1-.9-6-1.4-1.9-.5-5.3-1.2-7.5-1.5-2.2-.3-5.3-1-7-1.5-1.6-.5-4.3-1.1-6-1.4-1.6-.2-7.3-1.4-12.5-2.5-5.3-1.1-11.3-2.3-13.4-2.7-2.2-.3-5-1-6.3-1.5-2.4-.9-5.3-1.2-5.3-.6z"/><path d="M142.6 370.5c-20 7.1-26 32.9-11 47.9 7.9 7.9 20.2 10.6 30.5 6.7 6.6-2.5 13.6-9 16.4-15 1.2-2.9 2.3-4 3.4-3.7 1.8.5 34 7.7 35.6 8 .8.1 2.9-6.4 3.9-12.3.2-1.5 1.1-5.7 2.1-9.4.9-3.8 1.3-7.2.9-7.7-.5-.4-5.4-1.8-10.9-3s-14-3.1-19-4.2c-8.6-1.9-20.3-4.5-23.5-5.3-12.4-2.9-15.8-3.5-19.8-3.5-2.6.1-6.4.7-8.6 1.5zM298.7 406.1c-4 1.1-10.6 4.9-13.2 7.6-5.3 5.6-7.9 12.1-7.9 20.3-.1 10.8 4.1 18.8 12.9 24.7 13.7 9.2 33.9 3.7 41.2-11.2 2.6-5.2 2.6-5.2 6.2-4.4 2 .5 9.7 2.2 17.1 3.9 7.4 1.6 14.5 3.2 15.6 3.5 2.2.5 2.4-.1 4.9-12.5.3-1.4 1.2-5.6 2.1-9.3 1.6-6.7 1.5-7.9-.9-8.3-.7-.1-9.5-2.1-19.7-4.4-16.7-3.7-29.9-6.6-34.1-7.5-.8-.2-4.4-1-8-1.9-6.3-1.5-11.7-1.7-16.2-.5z"/></svg>