<?xml version="1.0" encoding="utf-8"?>
<!-- Generator: Adobe Illustrator 16.0.0, SVG Export Plug-In . SVG Version: 6.00 Build 0)  -->
<!DOCTYPE svg PUBLIC "-//W3C//DTD SVG 1.1//EN" "http://www.w3.org/Graphics/SVG/1.1/DTD/svg11.dtd">
<svg version="1.1" id="Layer_1" xmlns="http://www.w3.org/2000/svg" xmlns:xlink="http://www.w3.org/1999/xlink" x="0px" y="0px"
	 width="363.036px" height="348.035px" viewBox="0 0 363.036 348.035" enable-background="new 0 0 363.036 348.035"
	 xml:space="preserve">
<g>
	<path fill="#252429" d="M101.612,200.127c-7.47-1.683-14.907,3.026-16.586,10.505c-1.688,7.479,3.015,14.917,10.499,16.598
		c7.223,1.625,14.33-2.729,16.346-9.765l18.527,4.169l3.207-14.222l-31.18-7.013C102.151,200.32,101.902,200.19,101.612,200.127z"/>
	<path fill="#252429" d="M175.554,217.562c-7.481-1.683-14.91,3.02-16.598,10.499c-1.673,7.484,3.026,14.922,10.506,16.605
		c7.219,1.625,14.348-2.73,16.355-9.764l18.529,4.168l3.201-14.223l-31.141-7.003C176.118,217.755,175.86,217.627,175.554,217.562z"
		/>
	<path fill="#252429" d="M257.824,44.269c-18.507-5.41-47.35,14.722-56.342,12.955c-9.001-1.759-23.777-26.177-35.271-31.011
		c-27.258-6.146-68.457,113.213-68.457,113.213l168.718,33.084C266.473,172.51,276.335,49.669,257.824,44.269z"/>
	<polygon fill="#252429" points="226.83,172.912 112.043,150.022 52.057,137.438 45.603,169.772 80.354,177.327 116.873,184.606 
		207.045,202.582 244.514,210.053 306.987,222.396 313.435,190.062 	"/>
</g>
<g>
	<path fill="#0C5F7B" d="M234.944,208.144c2.04,7.533,3.163,15.415,3.163,23.52c0,43.129-30.886,80.102-71.406,89.74
		c3.878,0.387,7.855,0.648,12.037,0.648c63.039,0,91.485-46.385,91.996-92.766c0.054-4.75-0.225-9.505-0.814-14.214l-25.406-5.02
		L234.944,208.144z"/>
</g>
</svg>
